<svg xmlns="http://www.w3.org/2000/svg" width="1200" height="760" viewBox="0 0 1200 760" role="img" aria-labelledby="title desc">
<title id="title">Hot Sauce Label Checklist: Allergens, Sodium, and Serving Size article graphic</title>
<desc id="desc">Unique branded article graphic for Flameathon: Hot Sauce Label Checklist: Allergens, Sodium, and Serving Size.</desc>
<rect width="1200" height="760" fill="#fff1e8"/>
<rect width="1200" height="30" fill="#d9482b"/>
<path d="M0 650 C190 570 250 720 430 625 S780 548 1200 650 L1200 760 L0 760 Z" fill="#4a1612" opacity="0.08"/>
<text x="72" y="84" fill="#d9482b" font-size="22" font-weight="800" letter-spacing="3">FLAMEATHON</text>
<text x="72" y="150" fill="#4a1612" font-size="44" font-weight="800">Hot Sauce Label Checklist:</text><text x="72" y="208" fill="#4a1612" font-size="44" font-weight="800">Allergens, Sodium, and Serving</text><text x="72" y="266" fill="#4a1612" font-size="44" font-weight="800">Size</text>
<circle cx="780" cy="430" r="112" fill="#4a1612"/>
<text x="780" y="418" text-anchor="middle" fill="white" font-size="25" font-weight="800">ARTICLE</text>
<text x="780" y="454" text-anchor="middle" fill="white" font-size="25" font-weight="800">MAP</text>
<line x1="780" y1="430" x2="885" y2="603" stroke="#d9482b" stroke-width="6"/><circle cx="885" cy="603" r="46" fill="white" stroke="#d9482b" stroke-width="6"/><text x="885" y="609" text-anchor="middle" fill="#4a1612" font-size="16" font-weight="800">CHECK</text><line x1="780" y1="430" x2="744" y2="618" stroke="#d9482b" stroke-width="6"/><circle cx="744" cy="618" r="52" fill="white" stroke="#d9482b" stroke-width="6"/><text x="744" y="624" text-anchor="middle" fill="#4a1612" font-size="16" font-weight="800">VERIFY</text><line x1="780" y1="430" x2="527" y2="388" stroke="#d9482b" stroke-width="6"/><circle cx="527" cy="388" r="57" fill="white" stroke="#d9482b" stroke-width="6"/><text x="527" y="394" text-anchor="middle" fill="#4a1612" font-size="16" font-weight="800">MAP</text><line x1="780" y1="430" x2="762" y2="241" stroke="#d9482b" stroke-width="6"/><circle cx="762" cy="241" r="55" fill="white" stroke="#d9482b" stroke-width="6"/><text x="762" y="247" text-anchor="middle" fill="#4a1612" font-size="16" font-weight="800">NEXT</text>
<circle cx="90" cy="680" r="10" fill="#d9482b" opacity="0.35"/><circle cx="172" cy="680" r="9" fill="#d9482b" opacity="0.35"/><circle cx="254" cy="680" r="12" fill="#d9482b" opacity="0.35"/><circle cx="336" cy="680" r="10" fill="#d9482b" opacity="0.35"/><circle cx="418" cy="680" r="9" fill="#d9482b" opacity="0.35"/><circle cx="500" cy="680" r="8" fill="#d9482b" opacity="0.35"/><circle cx="582" cy="680" r="12" fill="#d9482b" opacity="0.35"/><circle cx="664" cy="680" r="10" fill="#d9482b" opacity="0.35"/><circle cx="746" cy="680" r="13" fill="#d9482b" opacity="0.35"/><circle cx="828" cy="680" r="10" fill="#d9482b" opacity="0.35"/><circle cx="910" cy="680" r="13" fill="#d9482b" opacity="0.35"/><circle cx="992" cy="680" r="14" fill="#d9482b" opacity="0.35"/>
<text x="72" y="724" fill="#4a1612" font-size="18">Unique article graphic • hot-sauce-label-checklist-allergens-sodium-and-serving-size</text>
</svg>
