<svg xmlns="http://www.w3.org/2000/svg" width="1200" height="760" viewBox="0 0 1200 760" role="img" aria-labelledby="title desc">
<title id="title">Pepper Prep: Keep Capsaicin Off Hands and Eyes article graphic</title>
<desc id="desc">Unique branded article graphic for Flameathon: Pepper Prep: Keep Capsaicin Off Hands and Eyes.</desc>
<rect width="1200" height="760" fill="#fff1e8"/>
<rect width="1200" height="30" fill="#d9482b"/>
<path d="M0 650 C190 570 250 720 430 625 S780 548 1200 650 L1200 760 L0 760 Z" fill="#4a1612" opacity="0.08"/>
<text x="72" y="84" fill="#d9482b" font-size="22" font-weight="800" letter-spacing="3">FLAMEATHON</text>
<text x="72" y="150" fill="#4a1612" font-size="44" font-weight="800">Pepper Prep: Keep Capsaicin Off</text><text x="72" y="208" fill="#4a1612" font-size="44" font-weight="800">Hands and Eyes</text>
<circle cx="780" cy="430" r="112" fill="#4a1612"/>
<text x="780" y="418" text-anchor="middle" fill="white" font-size="25" font-weight="800">ARTICLE</text>
<text x="780" y="454" text-anchor="middle" fill="white" font-size="25" font-weight="800">MAP</text>
<line x1="780" y1="430" x2="925" y2="587" stroke="#d9482b" stroke-width="6"/><circle cx="925" cy="587" r="58" fill="white" stroke="#d9482b" stroke-width="6"/><text x="925" y="593" text-anchor="middle" fill="#4a1612" font-size="16" font-weight="800">CHECK</text><line x1="780" y1="430" x2="700" y2="610" stroke="#d9482b" stroke-width="6"/><circle cx="700" cy="610" r="51" fill="white" stroke="#d9482b" stroke-width="6"/><text x="700" y="616" text-anchor="middle" fill="#4a1612" font-size="16" font-weight="800">VERIFY</text><line x1="780" y1="430" x2="524" y2="401" stroke="#d9482b" stroke-width="6"/><circle cx="524" cy="401" r="55" fill="white" stroke="#d9482b" stroke-width="6"/><text x="524" y="407" text-anchor="middle" fill="#4a1612" font-size="16" font-weight="800">MAP</text><line x1="780" y1="430" x2="902" y2="263" stroke="#d9482b" stroke-width="6"/><circle cx="902" cy="263" r="55" fill="white" stroke="#d9482b" stroke-width="6"/><text x="902" y="269" text-anchor="middle" fill="#4a1612" font-size="16" font-weight="800">NEXT</text>
<circle cx="90" cy="680" r="14" fill="#d9482b" opacity="0.35"/><circle cx="172" cy="680" r="15" fill="#d9482b" opacity="0.35"/><circle cx="254" cy="680" r="15" fill="#d9482b" opacity="0.35"/><circle cx="336" cy="680" r="15" fill="#d9482b" opacity="0.35"/><circle cx="418" cy="680" r="15" fill="#d9482b" opacity="0.35"/><circle cx="500" cy="680" r="15" fill="#d9482b" opacity="0.35"/><circle cx="582" cy="680" r="11" fill="#d9482b" opacity="0.35"/><circle cx="664" cy="680" r="9" fill="#d9482b" opacity="0.35"/><circle cx="746" cy="680" r="12" fill="#d9482b" opacity="0.35"/><circle cx="828" cy="680" r="14" fill="#d9482b" opacity="0.35"/><circle cx="910" cy="680" r="11" fill="#d9482b" opacity="0.35"/><circle cx="992" cy="680" r="13" fill="#d9482b" opacity="0.35"/>
<text x="72" y="724" fill="#4a1612" font-size="18">Unique article graphic • pepper-prep-keep-capsaicin-off-hands-and-eyes</text>
</svg>
