<svg xmlns="http://www.w3.org/2000/svg" width="1200" height="760" viewBox="0 0 1200 760" role="img" aria-labelledby="title desc"><title id="title">Scoville Numbers vs Perceived Heat</title><desc id="desc">Original editorial illustration for Scoville Numbers vs Perceived Heat, showing a distinct evidence-to-decision path with checkpoints and a stop branch.</desc><rect width="1200" height="760" fill="#f6f7f3"/><g><rect x="648" y="462" width="234" height="51" rx="16" fill="#a83d30" stroke="#314641" stroke-width="4"/><rect x="956" y="252" width="122" height="77" rx="16" fill="#ffffff" stroke="#314641" stroke-width="5"/><rect x="762" y="441" width="155" height="67" rx="16" fill="#dfe8e3" stroke="#314641" stroke-width="6"/><rect x="272" y="295" width="236" height="64" rx="22" fill="#a83d30" stroke="#314641" stroke-width="7"/><rect x="792" y="264" width="159" height="134" rx="29" fill="#ffffff" stroke="#314641" stroke-width="4"/><rect x="392" y="419" width="199" height="149" rx="19" fill="#dfe8e3" stroke="#314641" stroke-width="5"/><rect x="924" y="249" width="158" height="46" rx="22" fill="#a83d30" stroke="#314641" stroke-width="6"/><rect x="409" y="306" width="93" height="45" rx="17" fill="#ffffff" stroke="#314641" stroke-width="7"/><rect x="577" y="242" width="80" height="45" rx="16" fill="#dfe8e3" stroke="#314641" stroke-width="4"/><polyline points="90,562 255,561 420,594 585,548 750,567 915,547 1080,534" fill="none" stroke="#314641" stroke-width="12" stroke-linecap="round" stroke-linejoin="round"/><text x="70" y="88" font-family="Arial,sans-serif" font-size="40" font-weight="700" fill="#314641">Scoville Numbers vs Perceived Heat</text><text x="72" y="135" font-family="Arial,sans-serif" font-size="21" fill="#314641">Observe → compare → decide → record</text><path d="M1010 545 l75 75 m0 -75 l-75 75" stroke="#a83d30" stroke-width="15"/><text x="930" y="690" font-family="Arial,sans-serif" font-size="23" fill="#314641">STOP / VERIFY</text></g></svg>
